<?xml version="1.0" encoding="UTF-8" standalone="no"?>
<!-- Created with Inkscape (http://www.inkscape.org/) -->

<svg
   width="1306"
   height="380"
   viewBox="0 0 345.54584 100.54167"
   version="1.1"
   id="svg5"
   inkscape:version="1.2.1 (9c6d41e410, 2022-07-14, custom)"
   sodipodi:docname="logo.svg"
   xml:space="preserve"
   xmlns:inkscape="http://www.inkscape.org/namespaces/inkscape"
   xmlns:sodipodi="http://sodipodi.sourceforge.net/DTD/sodipodi-0.dtd"
   xmlns="http://www.w3.org/2000/svg"
   xmlns:svg="http://www.w3.org/2000/svg"><sodipodi:namedview
     id="namedview7"
     pagecolor="#505050"
     bordercolor="#eeeeee"
     borderopacity="1"
     inkscape:showpageshadow="0"
     inkscape:pageopacity="0"
     inkscape:pagecheckerboard="0"
     inkscape:deskcolor="#505050"
     inkscape:document-units="mm"
     showgrid="false"
     inkscape:zoom="0.70710678"
     inkscape:cx="434.87067"
     inkscape:cy="86.267027"
     inkscape:window-width="1920"
     inkscape:window-height="1043"
     inkscape:window-x="0"
     inkscape:window-y="0"
     inkscape:window-maximized="1"
     inkscape:current-layer="text23954"
     showguides="false"
     inkscape:lockguides="false" /><defs
     id="defs2" /><g
     inkscape:label="Layer 1"
     inkscape:groupmode="layer"
     id="layer1"><g
       id="g4302"
       transform="matrix(1.5623851,0,0,1.5623851,-49.307331,-58.637195)"><g
         id="g5575"
         transform="matrix(0.36562158,0,0,0.36562158,8.3130013,14.814732)"><g
           aria-label="E-shop"
           id="text23954"
           style="font-size:115.397px;line-height:1.25;font-family:'Basica regular';-inkscape-font-specification:'Basica regular, ';fill:#333333;stroke-width:2.88492"><path
             d="m 299.76858,196.25848 h -36.81165 v -15.2324 h 30.9264 c 2.65413,0 3.34651,-1.26937 3.34651,-3.34652 v -9.00096 c 0,-2.07715 -0.69238,-3.34651 -3.34651,-3.34651 h -30.9264 v -12.57828 h 34.8499 c 2.65413,0 3.34651,-1.26937 3.34651,-3.34651 v -9.57795 c 0,-2.07715 -0.69238,-3.34652 -3.34651,-3.34652 h -49.73611 c -2.65413,0 -3.34651,1.26937 -3.34651,3.34652 v 69.2382 c 0,2.07715 0.69238,3.34651 3.34651,3.34651 h 51.69786 c 2.65413,0 3.34651,-1.26936 3.34651,-3.34651 V 199.605 c 0,-2.07715 -0.69238,-3.34652 -3.34651,-3.34652 z"
             style="font-family:Archive;-inkscape-font-specification:Archive"
             id="path6410" /><path
             d="M 349.27398,173.75607 H 317.886 c -2.07715,0 -3.34651,0.69238 -3.34651,3.34651 v 9.00097 c 0,2.65413 1.26936,3.34651 3.34651,3.34651 h 31.38798 c 2.07715,0 3.34652,-0.69238 3.34652,-3.34651 v -9.00097 c 0,-2.65413 -1.26937,-3.34651 -3.34652,-3.34651 z"
             style="font-family:Archive;-inkscape-font-specification:Archive"
             id="path6412" /><path
             d="m 402.93359,168.33241 c -4.61588,-1.84635 -21.57924,-4.38509 -21.57924,-11.42431 0,-5.19286 6.34683,-6.69302 10.15494,-6.69302 3.46191,0 7.6162,1.03857 9.80874,3.11572 1.38476,1.38476 1.96175,2.30794 2.42334,3.46191 0.57698,1.50016 0.92317,3.11572 3.11572,3.11572 h 11.3089 c 2.65413,0 3.34652,-0.46159 3.34652,-3.23112 0,-15.2324 -16.04019,-21.92543 -30.69561,-21.92543 -14.42462,0.57698 -28.04147,7.96239 -28.04147,22.964 0,14.65542 10.73192,19.2713 22.38702,22.96401 9.80875,3.11572 20.07908,3.23111 20.07908,9.69334 0,6.46224 -5.07747,7.847 -11.30891,7.847 -4.26969,0 -9.00096,-1.03857 -11.3089,-3.8081 -1.50016,-1.73096 -2.07715,-3.23112 -2.19255,-4.73128 -0.23079,-2.88492 -1.50016,-3.23111 -4.15429,-3.23111 h -11.19351 c -2.65413,0 -3.34651,0.57698 -3.34651,3.23111 0,16.15558 16.61717,24.46417 31.04179,24.46417 17.77114,0 30.69561,-7.847 30.69561,-24.23337 0,-15.694 -12.23209,-19.04051 -20.54067,-21.57924 z"
             style="font-family:Archive;-inkscape-font-specification:Archive"
             id="path6414" /><path
             d="m 495.59734,136.48283 h -11.42431 c -2.07714,0 -3.34651,0.69239 -3.34651,3.34652 v 26.07972 h -25.73353 v -26.07972 c 0,-2.65413 -1.15397,-3.34652 -3.34652,-3.34652 h -11.4243 c -2.07715,0 -3.34651,0.69239 -3.34651,3.34652 v 69.2382 c 0,2.65413 1.26936,3.34651 3.34651,3.34651 h 11.4243 c 2.19255,0 3.34652,-0.69238 3.34652,-3.34651 v -26.07972 h 25.73353 v 26.07972 c 0,2.65413 1.26937,3.34651 3.34651,3.34651 h 11.42431 c 2.07714,0 3.34651,-0.69238 3.34651,-3.34651 v -69.2382 c 0,-2.65413 -1.26937,-3.34652 -3.34651,-3.34652 z"
             style="font-family:Archive;-inkscape-font-specification:Archive"
             id="path6416" /><path
             d="m 575.6828,160.8316 c 0,-18.23272 -17.30955,-26.07972 -31.0418,-26.07972 -13.73224,0 -30.811,7.847 -30.811,26.07972 v 27.23369 c 0,18.23273 17.07876,26.07973 30.811,26.07973 13.73225,0 31.0418,-7.847 31.0418,-26.07973 z m -18.11733,25.61814 c 0,7.3854 -5.30826,11.65509 -12.92447,11.65509 -7.5008,0 -12.80906,-4.26969 -12.80906,-11.65509 v -24.00258 c 0,-7.38541 5.30826,-11.6551 12.80906,-11.6551 7.61621,0 12.92447,4.26969 12.92447,11.6551 z"
             style="font-family:Archive;-inkscape-font-specification:Archive"
             id="path6418" /><path
             d="m 619.76451,136.48283 h -25.96433 c -2.65413,0 -3.34651,1.26937 -3.34651,3.34652 v 69.2382 c 0,2.65413 1.26937,3.34651 3.34651,3.34651 h 11.42431 c 2.07714,0 3.34651,-0.69238 3.34651,-3.34651 v -19.1559 h 11.07811 c 19.73289,0 30.34941,-10.61653 30.34941,-26.65671 0,-15.92479 -10.38573,-26.77211 -30.23401,-26.77211 z m -0.1154,37.85022 H 608.571 v -21.57924 h 11.07811 c 9.00097,0 12.92447,4.84668 12.92447,10.84732 0,5.76985 -3.9235,10.73192 -12.92447,10.73192 z"
             style="font-family:Archive;-inkscape-font-specification:Archive"
             id="path6420" /></g><path
           d="m 78.337382,212.47767 q -5.14495,0 -8.746476,-3.6015 -3.60154,-3.6015 -3.60154,-8.7465 v -15.6408 l 32.927998,-29.22359 v 57.21239 z m 28.812028,0 v -32.92799 h 65.85593 v 32.92799 z m 74.08798,0 v -67.50239 l -35.19178,-31.2816 24.90178,-22.020581 39.10194,34.780191 q 2.05802,1.85219 3.087,4.21889 1.02906,2.3667 1.02906,5.0421 v 64.41539 q 0,5.145 -3.60153,8.7465 -3.60146,3.6015 -8.74649,3.6015 z M 65.989366,173.37568 v -37.6614 q 0,-2.6754 1.02906,-5.145 1.02897,-2.4696 3.08701,-4.11599 L 131.84537,71.710494 q 1.64641,-1.646399 3.80726,-2.366698 2.16094,-0.720254 4.42478,-0.720254 2.26376,0 4.4247,0.720254 2.16085,0.720253 3.80726,2.366698 l 16.46401,14.611804 z"
           id="path134"
           style="fill:#dc3545;fill-opacity:1;stroke-width:4.116" /></g></g></g></svg>
